<svg xmlns="http://www.w3.org/2000/svg" version="1.1" xmlns:xlink="http://www.w3.org/1999/xlink" width="444" height="504"><svg width="444" height="504" viewBox="0 0 444 504" fill="none" xmlns="http://www.w3.org/2000/svg">
<path d="M222.001 297.275C247.14 297.275 267.519 276.969 267.519 251.921C267.519 226.872 247.14 206.567 222.001 206.567C196.862 206.567 176.483 226.872 176.483 251.921C176.483 276.969 196.862 297.275 222.001 297.275Z" fill="#E3322B"></path>
<path d="M222.003 169.043C239.598 169.043 253.861 154.831 253.861 137.3C253.861 119.768 239.598 105.556 222.003 105.556C204.408 105.556 190.145 119.768 190.145 137.3C190.145 154.831 204.408 169.043 222.003 169.043Z" fill="#E3322B"></path>
<path d="M321.619 226.341C339.214 226.341 353.477 212.129 353.477 194.597C353.477 177.066 339.214 162.854 321.619 162.854C304.024 162.854 289.761 177.066 289.761 194.597C289.761 212.129 304.024 226.341 321.619 226.341Z" fill="#E3322B"></path>
<path d="M122.38 102.652C134.949 102.652 145.139 92.4994 145.139 79.9753C145.139 67.4512 134.949 57.2983 122.38 57.2983C109.811 57.2983 99.6211 67.4512 99.6211 79.9753C99.6211 92.4994 109.811 102.652 122.38 102.652Z" fill="#E3322B"></path>
<path d="M222.003 45.3538C234.573 45.3538 244.762 35.201 244.762 22.6769C244.762 10.1528 234.573 0 222.003 0C209.434 0 199.244 10.1528 199.244 22.6769C199.244 35.201 209.434 45.3538 222.003 45.3538Z" fill="#E3322B"></path>
<path d="M321.62 102.652C334.19 102.652 344.379 92.4994 344.379 79.9753C344.379 67.4512 334.19 57.2983 321.62 57.2983C309.051 57.2983 298.861 67.4512 298.861 79.9753C298.861 92.4994 309.051 102.652 321.62 102.652Z" fill="#E3322B"></path>
<path d="M421.241 159.976C433.811 159.976 444 149.823 444 137.299C444 124.775 433.811 114.622 421.241 114.622C408.672 114.622 398.482 124.775 398.482 137.299C398.482 149.823 408.672 159.976 421.241 159.976Z" fill="#E3322B"></path>
<path d="M421.241 274.598C433.811 274.598 444 264.445 444 251.921C444 239.397 433.811 229.244 421.241 229.244C408.672 229.244 398.482 239.397 398.482 251.921C398.482 264.445 408.672 274.598 421.241 274.598Z" fill="#E3322B"></path>
<path d="M22.7589 274.598C35.3283 274.598 45.5179 264.445 45.5179 251.921C45.5179 239.397 35.3283 229.244 22.7589 229.244C10.1895 229.244 0 239.397 0 251.921C0 264.445 10.1895 274.598 22.7589 274.598Z" fill="#E3322B"></path>
<path d="M22.7589 159.976C35.3283 159.976 45.5179 149.823 45.5179 137.299C45.5179 124.775 35.3283 114.622 22.7589 114.622C10.1895 114.622 0 124.775 0 137.299C0 149.823 10.1895 159.976 22.7589 159.976Z" fill="#E3322B"></path>
<path d="M122.382 226.341C139.977 226.341 154.24 212.129 154.24 194.597C154.24 177.066 139.977 162.854 122.382 162.854C104.787 162.854 90.5234 177.066 90.5234 194.597C90.5234 212.129 104.787 226.341 122.382 226.341Z" fill="#E3322B"></path>
<path d="M222.003 398.287C239.598 398.287 253.861 384.075 253.861 366.543C253.861 349.012 239.598 334.8 222.003 334.8C204.408 334.8 190.145 349.012 190.145 366.543C190.145 384.075 204.408 398.287 222.003 398.287Z" fill="#E3322B"></path>
<path d="M321.619 340.963C339.214 340.963 353.477 326.751 353.477 309.22C353.477 291.688 339.214 277.476 321.619 277.476C304.024 277.476 289.761 291.688 289.761 309.22C289.761 326.751 304.024 340.963 321.619 340.963Z" fill="#E3322B"></path>
<path d="M122.382 340.963C139.977 340.963 154.24 326.751 154.24 309.22C154.24 291.688 139.977 277.476 122.382 277.476C104.787 277.476 90.5234 291.688 90.5234 309.22C90.5234 326.751 104.787 340.963 122.382 340.963Z" fill="#E3322B"></path>
<path d="M421.241 389.22C433.811 389.22 444 379.067 444 366.543C444 354.019 433.811 343.866 421.241 343.866C408.672 343.866 398.482 354.019 398.482 366.543C398.482 379.067 408.672 389.22 421.241 389.22Z" fill="#E3322B"></path>
<path d="M322.178 445.835C334.747 445.835 344.937 435.682 344.937 423.158C344.937 410.634 334.747 400.481 322.178 400.481C309.608 400.481 299.419 410.634 299.419 423.158C299.419 435.682 309.608 445.835 322.178 445.835Z" fill="#E3322B"></path>
<path d="M222.003 503.842C234.573 503.842 244.762 493.689 244.762 481.165C244.762 468.641 234.573 458.488 222.003 458.488C209.434 458.488 199.244 468.641 199.244 481.165C199.244 493.689 209.434 503.842 222.003 503.842Z" fill="#E3322B"></path>
<path d="M122.38 446.52C134.949 446.52 145.139 436.367 145.139 423.843C145.139 411.319 134.949 401.167 122.38 401.167C109.811 401.167 99.6211 411.319 99.6211 423.843C99.6211 436.367 109.811 446.52 122.38 446.52Z" fill="#E3322B"></path>
<path d="M22.7589 389.22C35.3283 389.22 45.5179 379.067 45.5179 366.543C45.5179 354.019 35.3283 343.866 22.7589 343.866C10.1895 343.866 0 354.019 0 366.543C0 379.067 10.1895 389.22 22.7589 389.22Z" fill="#E3322B"></path>
</svg><style>@media (prefers-color-scheme: light) { :root { filter: none; } }
@media (prefers-color-scheme: dark) { :root { filter: none; } }
</style></svg>
