<?xml version="1.0" encoding="UTF-8" standalone="no"?>
<svg
   xmlns:dc="http://purl.org/dc/elements/1.1/"
   xmlns:cc="http://creativecommons.org/ns#"
   xmlns:rdf="http://www.w3.org/1999/02/22-rdf-syntax-ns#"
   xmlns:svg="http://www.w3.org/2000/svg"
   xmlns="http://www.w3.org/2000/svg"
   xmlns:sodipodi="http://sodipodi.sourceforge.net/DTD/sodipodi-0.dtd"
   xmlns:inkscape="http://www.inkscape.org/namespaces/inkscape"
   width="134"
   height="51"
   viewBox="0 0 134 51"
   fill="none"
   version="1.1"
   id="svg46"
   sodipodi:docname="fotc-logo.svg"
   inkscape:version="1.0 (4035a4fb49, 2020-05-01)">
  <metadata
     id="metadata52">
    <rdf:RDF>
      <cc:Work
         rdf:about="">
        <dc:format>image/svg+xml</dc:format>
        <dc:type
           rdf:resource="http://purl.org/dc/dcmitype/StillImage" />
        <dc:title></dc:title>
      </cc:Work>
    </rdf:RDF>
  </metadata>
  <defs
     id="defs50" />
  <sodipodi:namedview
     inkscape:document-rotation="0"
     pagecolor="#ffffff"
     bordercolor="#666666"
     borderopacity="1"
     objecttolerance="10"
     gridtolerance="10"
     guidetolerance="10"
     inkscape:pageopacity="0"
     inkscape:pageshadow="2"
     inkscape:window-width="2434"
     inkscape:window-height="1012"
     id="namedview48"
     showgrid="false"
     inkscape:zoom="51.708513"
     inkscape:cx="37.984904"
     inkscape:cy="2.9026444"
     inkscape:window-x="1372"
     inkscape:window-y="192"
     inkscape:window-maximized="0"
     inkscape:current-layer="svg46" />
  <g
     id="g76"
     transform="matrix(1.1591235,0,0,1.1659094,-0.10809432,-0.56979967)">
    <path
       id="path2"
       fill="#e3322b"
       d="m 0.09325306,34.028397 v -23.3361 H 15.216153 v 3.4338 H 4.3758531 v 6.5341 h 8.7658999 v 3.367 H 4.3758531 v 10.0012 z" />
    <path
       id="path4"
       fill="#e3322b"
       d="m 74.637853,34.028397 v -19.9023 h -6.8254 v -3.4338 h 17.9594 v 3.4338 h -6.8588 v 19.9023 z" />
    <path
       id="path6"
       fill="#e3322b"
       d="m 105.41885,34.428197 c -2.364,0 -4.394,-0.5056 -6.088997,-1.5168 -1.689,-1.004 -3.049,-2.4748 -3.915,-4.2338 -0.914,-1.8114 -1.371,-3.9061 -1.371,-6.2841 0,-2.3781 0.457,-4.4771 1.371,-6.2971 0.866,-1.7657 2.226,-3.2449 3.915,-4.2597 1.692997,-1.0224 3.721997,-1.5335 6.088997,-1.5335 2.811,0 5.114,0.6945 6.909,2.0835 1.796,1.3891 2.919,3.3356 3.37,5.8396 h -4.725 c -0.239,-1.185 -0.899,-2.2443 -1.859,-2.9837 -0.95,-0.7223 -2.205,-1.0834 -3.764,-1.0834 -2.163,0 -3.858,0.7334 -5.085,2.2002 -1.226997,1.4669 -1.839997,3.4782 -1.839997,6.0341 0,2.5558 0.613,4.5616 1.839997,6.0174 1.227,1.4557 2.922,2.1835 5.085,2.1835 1.559,0 2.814,-0.3389 3.764,-1.0167 0.949,-0.6771 1.611,-1.681 1.859,-2.817 h 4.725 c -0.448,2.4002 -1.569,4.2782 -3.362,5.634 -1.793,1.3557 -4.099,2.0335 -6.917,2.0335 z" />
    <path
       id="path8"
       fill="#e3322b"
       d="m 41.514653,26.297797 c 2.1825,0 3.9518,-1.7629 3.9518,-3.9375 0,-2.1746 -1.7693,-3.9375 -3.9518,-3.9375 -2.1825,0 -3.9517,1.7629 -3.9517,3.9375 0,2.1746 1.7692,3.9375 3.9517,3.9375 z" />
    <path
       id="path10"
       fill="#e3322b"
       d="m 41.514353,15.164997 c 1.5275,0 2.7658,-1.2338 2.7658,-2.7559 0,-1.522 -1.2383,-2.7558001 -2.7658,-2.7558001 -1.5275,0 -2.7659,1.2338001 -2.7659,2.7558001 0,1.5221 1.2384,2.7559 2.7659,2.7559 z" />
    <path
       id="path12"
       fill="#e3322b"
       d="m 50.163253,20.139597 c 1.5275,0 2.7659,-1.2338 2.7659,-2.7558 0,-1.5221 -1.2384,-2.7559 -2.7659,-2.7559 -1.5275,0 -2.7658,1.2338 -2.7658,2.7559 0,1.522 1.2383,2.7558 2.7658,2.7558 z" />
    <path
       id="path14"
       fill="#e3322b"
       d="m 32.865453,9.4012969 c 1.0913,0 1.9759,-0.8814 1.9759,-1.9687 0,-1.0873 -0.8846,-1.9688 -1.9759,-1.9688 -1.0912,0 -1.9758,0.8815 -1.9758,1.9688 0,1.0873 0.8846,1.9687 1.9758,1.9687 z" />
    <path
       id="path16"
       fill="#e3322b"
       d="m 41.513953,4.4261969 c 1.0912,0 1.9758,-0.8814 1.9758,-1.9687 0,-1.0873 -0.8846,-1.96877996 -1.9758,-1.96877996 -1.0913,0 -1.9759,0.88147996 -1.9759,1.96877996 0,1.0873 0.8846,1.9687 1.9759,1.9687 z" />
    <path
       id="path18"
       fill="#e3322b"
       d="m 50.163353,9.4012969 c 1.0912,0 1.9759,-0.8814 1.9759,-1.9687 0,-1.0873 -0.8847,-1.9688 -1.9759,-1.9688 -1.0913,0 -1.9759,0.8815 -1.9759,1.9688 0,1.0873 0.8846,1.9687 1.9759,1.9687 z" />
    <path
       id="path20"
       fill="#e3322b"
       d="m 58.812253,14.377397 c 1.0912,0 1.9759,-0.8815 1.9759,-1.9688 0,-1.0873 -0.8847,-1.9687 -1.9759,-1.9687 -1.0912,0 -1.9759,0.8814 -1.9759,1.9687 0,1.0873 0.8847,1.9688 1.9759,1.9688 z" />
    <path
       id="path22"
       fill="#e3322b"
       d="m 58.812253,24.329097 c 1.0912,0 1.9759,-0.8815 1.9759,-1.9688 0,-1.0873 -0.8847,-1.9688 -1.9759,-1.9688 -1.0912,0 -1.9759,0.8815 -1.9759,1.9688 0,1.0873 0.8847,1.9688 1.9759,1.9688 z" />
    <path
       id="path24"
       fill="#e3322b"
       d="m 24.216553,24.329097 c 1.0912,0 1.9759,-0.8815 1.9759,-1.9688 0,-1.0873 -0.8847,-1.9688 -1.9759,-1.9688 -1.0913,0 -1.9759,0.8815 -1.9759,1.9688 0,1.0873 0.8846,1.9688 1.9759,1.9688 z" />
    <path
       id="path26"
       fill="#e3322b"
       d="m 24.216553,14.377397 c 1.0912,0 1.9759,-0.8815 1.9759,-1.9688 0,-1.0873 -0.8847,-1.9687 -1.9759,-1.9687 -1.0913,0 -1.9759,0.8814 -1.9759,1.9687 0,1.0873 0.8846,1.9688 1.9759,1.9688 z" />
    <path
       id="path28"
       fill="#e3322b"
       d="m 32.865453,20.139597 c 1.5275,0 2.7658,-1.2338 2.7658,-2.7558 0,-1.5221 -1.2383,-2.7559 -2.7658,-2.7559 -1.5276,0 -2.7659,1.2338 -2.7659,2.7559 0,1.522 1.2383,2.7558 2.7659,2.7558 z" />
    <path
       id="path30"
       fill="#e3322b"
       d="m 41.514353,35.067397 c 1.5275,0 2.7658,-1.2339 2.7658,-2.7559 0,-1.522 -1.2383,-2.7559 -2.7658,-2.7559 -1.5275,0 -2.7659,1.2339 -2.7659,2.7559 0,1.522 1.2384,2.7559 2.7659,2.7559 z" />
    <path
       id="path32"
       fill="#e3322b"
       d="m 50.163253,30.090797 c 1.5275,0 2.7659,-1.2338 2.7659,-2.7559 0,-1.522 -1.2384,-2.7558 -2.7659,-2.7558 -1.5275,0 -2.7658,1.2338 -2.7658,2.7558 0,1.5221 1.2383,2.7559 2.7658,2.7559 z" />
    <path
       id="path34"
       fill="#e3322b"
       d="m 32.865453,30.090797 c 1.5275,0 2.7658,-1.2338 2.7658,-2.7559 0,-1.522 -1.2383,-2.7558 -2.7658,-2.7558 -1.5276,0 -2.7659,1.2338 -2.7659,2.7558 0,1.5221 1.2383,2.7559 2.7659,2.7559 z" />
    <path
       id="path36"
       fill="#e3322b"
       d="m 58.812253,34.280197 c 1.0912,0 1.9759,-0.8814 1.9759,-1.9687 0,-1.0873 -0.8847,-1.9688 -1.9759,-1.9688 -1.0912,0 -1.9759,0.8815 -1.9759,1.9688 0,1.0873 0.8847,1.9687 1.9759,1.9687 z" />
    <path
       id="path38"
       fill="#e3322b"
       d="m 50.211653,39.195297 c 1.0913,0 1.9759,-0.8815 1.9759,-1.9688 0,-1.0873 -0.8846,-1.9687 -1.9759,-1.9687 -1.0912,0 -1.9759,0.8814 -1.9759,1.9687 0,1.0873 0.8847,1.9688 1.9759,1.9688 z" />
    <path
       id="path40"
       fill="#e3322b"
       d="m 41.513953,44.231397 c 1.0912,0 1.9758,-0.8814 1.9758,-1.9688 0,-1.0873 -0.8846,-1.9687 -1.9758,-1.9687 -1.0913,0 -1.9759,0.8814 -1.9759,1.9687 0,1.0874 0.8846,1.9688 1.9759,1.9688 z" />
    <path
       id="path42"
       fill="#e3322b"
       d="m 32.865453,39.255297 c 1.0913,0 1.9759,-0.8814 1.9759,-1.9687 0,-1.0873 -0.8846,-1.9688 -1.9759,-1.9688 -1.0912,0 -1.9758,0.8815 -1.9758,1.9688 0,1.0873 0.8846,1.9687 1.9758,1.9687 z" />
    <path
       id="path44"
       fill="#e3322b"
       d="m 24.216553,34.280197 c 1.0912,0 1.9759,-0.8814 1.9759,-1.9687 0,-1.0873 -0.8847,-1.9688 -1.9759,-1.9688 -1.0913,0 -1.9759,0.8815 -1.9759,1.9688 0,1.0873 0.8846,1.9687 1.9759,1.9687 z" />
  </g>
</svg>
